<svg id="Capa_1" enable-background="new 0 0 512 512" height="512" viewBox="0 0 512 512" width="512" xmlns="http://www.w3.org/2000/svg"><path d="m430.664 51.978c-11.949 0-23.072 3.584-32.37 9.718-8.146-22.806-29.957-39.175-55.526-39.175-12.921 0-24.876 4.19-34.601 11.266-9.458-19.952-29.788-33.787-53.296-33.787-21.257 0-39.919 11.313-50.291 28.231-10.198-8.431-23.27-13.503-37.504-13.503-32.504 0-58.948 26.444-58.948 58.948v67.927h-3.355c-45.298 0-82.191 36.853-82.24 82.151l-.146 127.824 58.426 40.867c34.101 23.853 54.46 62.939 54.46 104.555v15h278.605v-94.104l43.811-56.271c20.586-26.442 31.924-59.459 31.924-92.969v-157.731c0-32.504-26.445-58.947-58.949-58.947zm28.949 216.679c0 26.867-9.09 53.339-25.596 74.54l-50.139 64.398v74.405h-219.321c-4.373-45.677-28.555-87.563-66.548-114.138l-45.604-31.898.129-112.177c.031-28.774 23.466-52.184 52.24-52.184h3.355v51.564h30v-149.491c0-15.962 12.986-28.948 28.948-28.948 15.177 0 27.654 11.742 28.846 26.618v43.977h30.102l-.102-56.374c0-15.962 12.986-28.948 28.948-28.948s28.948 12.986 28.948 28.948v56.374h30v-33.854c0-15.962 12.986-28.948 28.948-28.948s28.948 12.986 28.948 28.948v33.853h30v-4.396c0-15.962 12.986-28.948 28.948-28.948s28.948 12.986 28.948 28.948v157.731z"/></svg>